<svg enable-background="new 0 0 500 500" viewBox="0 0 500 500" xmlns="http://www.w3.org/2000/svg"><g fill="#231f20"><path d="m484.3 76.4v-7c-25.2 2.3-44.9 23.4-44.9 49.2h.1l-.1 60.3v.6h-.1c-.1 60.4-49.4 109.4-109.7 109.2-28.7-.1-54.9-11.3-74.4-29.6 1.5-1.6 2.9-3.2 4.3-4.8 18.4 17.2 43 27.9 70.1 27.9 56.8.1 103.2-46 103.3-102.8h.1v-1.7l.1-59.4c0-29.2 22.6-53.2 51.2-55.5v-7c-32.6 2.3-58.3 29.5-58.3 62.7l-.1 60.3v.6h-.1c-.1 53-43.3 96-96.3 95.8-52.9-.1-95.9-43.3-95.8-96.2 0-.1 0-.1 0-.1v-1.7l.3-105c.3-9 7.6-16.2 16.7-16.2 9 0 16.3 7.2 16.7 16.1l-.4 105.3v1.7h-.1c0 13.4 4.2 25.9 11.4 36.1.7 1 1.3 2.1 2.1 3 0-.1 0-.1.1-.2 11.5 14.5 29.2 23.9 49 23.9 34.6.1 62.8-28 62.9-62.6v-.6l.1-60.1c-.1-51.5 40.6-93.7 91.5-96.1v-7c-54.7 2.4-98.4 47.5-98.5 102.7h-.1l-.1 59.4v1.7c-.1 30.7-25.2 55.7-55.9 55.6-19.4-.1-36.5-10.1-46.4-25.2.8-3 1.5-6.1 2.1-9.2 7.9 16.5 24.8 28 44.3 28 27.3.1 49.4-22 49.5-49.2v-.6l.1-60h.1c0-1.9 0-3.8.1-5.7 0-.6.1-1.3.1-1.9.1-1.2.2-2.5.3-3.7.1-.8.2-1.5.3-2.3.1-1.1.3-2.2.4-3.3.1-.8.3-1.5.4-2.3.2-1.1.4-2.1.6-3.2.2-.8.4-1.6.5-2.3.2-1 .5-2 .7-3.1.2-.8.4-1.6.7-2.3.3-1 .6-2 .9-2.9.2-.8.5-1.5.8-2.3.3-1 .7-1.9 1-2.9.3-.8.6-1.5.9-2.3.4-.9.7-1.9 1.1-2.8.3-.7.7-1.5 1-2.2.4-.9.8-1.8 1.3-2.7.4-.7.7-1.4 1.1-2.2.5-.9.9-1.8 1.4-2.6.4-.7.8-1.4 1.2-2.1.5-.9 1-1.7 1.5-2.6.4-.7.9-1.3 1.3-2 .5-.8 1.1-1.7 1.6-2.5.4-.7.9-1.3 1.4-2 .6-.8 1.2-1.6 1.8-2.4.5-.6 1-1.3 1.5-1.9.6-.8 1.2-1.5 1.9-2.3.5-.6 1-1.2 1.6-1.8.7-.7 1.3-1.5 2-2.2.5-.6 1.1-1.2 1.6-1.7.7-.7 1.4-1.4 2.1-2.1.6-.6 1.2-1.1 1.8-1.7s1.3-1.2 1.9-1.7c.6-.6 1.3-1.1 2-1.7s1.3-1.1 2-1.7c.7-.5 1.4-1.1 2.1-1.6s1.3-1 2-1.5 1.4-1 2.2-1.5c.7-.5 1.4-1 2.1-1.4.7-.5 1.5-1 2.3-1.5.7-.4 1.4-.9 2.1-1.3.8-.5 1.6-.9 2.4-1.4.7-.4 1.4-.8 2.1-1.2.8-.4 1.6-.9 2.5-1.3.7-.4 1.4-.7 2.2-1.1.9-.4 1.7-.8 2.6-1.2.7-.3 1.5-.7 2.2-1 .9-.4 1.8-.7 2.7-1.1.7-.3 1.5-.6 2.2-.9.9-.3 1.8-.6 2.8-1 .7-.3 1.5-.5 2.2-.7.9-.3 1.9-.6 2.9-.8.7-.2 1.5-.4 2.3-.6 1-.3 2-.5 3-.7.7-.2 1.5-.4 2.2-.5 1-.2 2.1-.4 3.1-.6.7-.1 1.5-.3 2.2-.4 1.1-.2 2.2-.3 3.3-.4.7-.1 1.4-.2 2.1-.3 1.2-.1 2.5-.2 3.7-.3.6 0 1.2-.1 1.8-.1h1.2v-6.9c-62.4 2.6-112.1 53.7-112.2 116.3h-.1l-.1 59.4v1.7c-.1 23.4-19 42.3-42.4 42.2-23.3-.1-42.2-19-42.2-42.4h.1v-.6l.3-105.7c0-.3 0-.5 0-.7-.4-20.2-16.9-36.4-37.2-36.4-20.2 0-36.6 16.2-37.2 36.3v.5.5l-.2 105.5v.6c-.1 23.4-19 42.3-42.4 42.2-23.3-.1-42.2-19-42.2-42.4h.1v-1.7l.1-59.4h-.1c-.3-62.5-49.9-113.3-111.7-115.7v6.9h1.2c.6 0 1.2.1 1.8.1 1.2.1 2.5.2 3.7.3.7.1 1.4.2 2.1.3 1.1.1 2.2.3 3.3.4.7.1 1.5.3 2.2.4 1 .2 2.1.4 3.1.6.8.2 1.5.3 2.2.5 1 .2 2 .4 3 .7.8.2 1.5.4 2.3.6 1 .3 1.9.5 2.9.8.8.2 1.5.5 2.2.7.9.3 1.9.6 2.8 1 .7.3 1.5.6 2.2.9.9.4 1.8.7 2.7 1.1.7.3 1.5.6 2.2 1 .9.4 1.7.8 2.6 1.2.7.3 1.4.7 2.2 1.1s1.7.8 2.5 1.3c.7.4 1.4.8 2.1 1.2.8.5 1.6.9 2.4 1.4.7.4 1.4.9 2.1 1.3.8.5 1.5 1 2.3 1.5.7.5 1.4.9 2.1 1.4s1.4 1 2.2 1.5c.7.5 1.4 1 2 1.5.7.5 1.4 1.1 2.1 1.6s1.3 1.1 2 1.7 1.3 1.1 2 1.7c.6.6 1.3 1.2 1.9 1.7.6.6 1.2 1.1 1.8 1.7.7.7 1.4 1.4 2.1 2.1.6.6 1.1 1.2 1.6 1.7.7.7 1.3 1.5 2 2.2.5.6 1 1.2 1.6 1.8.6.8 1.3 1.5 1.9 2.3.5.6 1 1.2 1.5 1.9.6.8 1.2 1.6 1.8 2.4.5.6.9 1.3 1.4 2 .6.8 1.1 1.6 1.6 2.5.4.7.9 1.4 1.3 2 .5.8 1 1.7 1.5 2.6.4.7.8 1.4 1.2 2.1.5.9.9 1.8 1.4 2.6.4.7.7 1.4 1.1 2.2.4.9.9 1.8 1.3 2.7.3.7.7 1.5 1 2.2.4.9.8 1.8 1.1 2.8.3.7.6 1.5.9 2.3.3.9.7 1.9 1 2.9.3.8.5 1.5.8 2.3.3 1 .6 2 .9 2.9.2.8.4 1.6.7 2.3.3 1 .5 2 .7 3.1.2.8.4 1.5.5 2.3.2 1.1.4 2.1.6 3.2.1.8.3 1.5.4 2.3.2 1.1.3 2.2.4 3.3.1.8.2 1.5.3 2.3.1 1.2.2 2.5.3 3.7 0 .6.1 1.3.1 1.9.1 1.9.1 3.8.1 5.7l-.1 59.4v.6h-.1c-.1 27.3 22 49.4 49.2 49.5 24.5.1 44.8-17.8 48.7-41.1.2-.9.3-1.7.4-2.6 0-.3.1-.5.1-.7.1-1 .3-1.9.3-2.9 0-.6-.1-1.2-.1-1.9v-1.7l.3-104.5h.1c0-16.6 13.5-30 30.1-30s30 13.4 30 30h.1l-.2 104.6v1.7h-.1c0 7.3-.8 14.4-2.2 21.3-2.7-6.6-4.2-13.7-4.2-21.3h.1v-.6l.3-106.5h-.1c-.4-12.7-10.8-22.8-23.6-22.8s-23.1 10.1-23.6 22.7h-.1l-.2 106.5v.6.2c0 7.5-1.6 14.6-4.3 21.2 0-.1 0-.2-.1-.3-1.4 3.3-3.1 6.4-5.1 9.4 0 .1.1.2.1.3-10 15-27.2 25-46.5 24.9-30.7-.1-55.7-25.1-55.6-55.9h.1v-1.7l.1-58.3c0-.2 0-.4 0-.6v-.4c-.4-54.9-44-99.6-98.4-102.1v7c50.7 2.4 91.2 44.3 91.4 95.5l-.1 60v.6h-.1c-.1 34.6 28 62.8 62.6 62.9 19.9 0 37.7-9.3 49.2-23.8.8 2.3 1.7 4.5 2.7 6.7-12.7 14.4-31.2 23.5-51.9 23.4-38.1-.1-69.1-31.2-69-69.3h.1v-1.9l.1-58.3h.1c.1-48-37.7-87.2-85.1-89.6v7c43.2 2.4 77.6 37.9 78 81.5l-.2 60.5v.6h-.1c-.1 42 34 76.3 76 76.4 21.6.1 41.1-9 55-23.5 0 .1.1.1.1.2.8-.7 1.5-1.5 2-2.1s1.7-2.1 3-3.8c1.5-1.9 2.9-4 4.2-6 1 2.3 2.1 4.5 3.2 6.7-15 21.2-39.6 35.1-67.5 35-45.5-.1-82.5-37.3-82.4-82.8h.1v-1.7l.1-58.3h.1c.1-40.6-31.7-73.8-71.7-76.1v7c35.8 2.3 64.1 31.8 64.6 68l-.1 60.5v.6h-.1c-.1 49.4 40 89.8 89.4 89.9 24.1.1 46-9.5 62.1-25 1.2 1.8 2.4 3.6 3.7 5.3-17.2 16.2-40.4 26.2-65.9 26.1-52.9-.1-95.9-43.3-95.8-96.3v-1.7l.1-58.3h.1c-.5-33.3-26.3-60.5-58.9-62.8v7c28.3 2.3 50.7 25.8 51.2 54.6l-.1 60.5v.6c-.1 56.8 46 103.2 102.8 103.3 27.1.1 51.7-10.5 70.2-27.6 0 0 0 .1.1.1 1.4-1.2 2.7-2.4 3.2-2.9.4-.4 1.1-1.1 1.8-2 0 0-.1-.1-.1-.1 1.5-1.6 2.9-3.1 4.3-4.8 1.4 1.7 2.9 3.2 4.3 4.8-20.1 23.8-50.2 39.1-83.8 39-60.4-.3-109.5-49.5-109.3-109.9v-.6l.1-59.4h.1c.1-25.8-19.7-47-44.9-49.2v7c21 2.2 37.3 19.7 37.8 41.1h-.1v60.5.6c-.1 64.2 52 116.7 116.2 116.8 30.7.1 58.6-11.9 79.5-31.3 20.8 19.5 48.6 31.6 79.3 31.7 64.2.1 116.6-52 116.8-116.3h.1v-1.7l.1-59.4c0-21.8 16.6-39.8 37.9-42zm-256.8 141.9c-1-2.5-1.8-5.1-2.6-7.7 1.7-2.8 3.1-5.7 4.3-8.7.7 3.2 1.6 6.4 2.6 9.5-1.3 2.4-2.7 4.7-4.3 6.9zm14 25.5c-1.3-1.8-2.6-3.6-3.7-5.5 1.5-1.7 2.9-3.4 4.2-5.1 1.2 1.9 2.4 3.8 3.7 5.7-1.3 1.6-2.7 3.3-4.2 4.9z"/><path d="m399.1 118.4-.2 60.5v.6h-.1c-.1 38.2-31.2 69.1-69.3 69s-69.1-31.2-69-69.3h.1v-.6l.3-105.7h.1c0-5.7-4.6-10.3-10.4-10.3-5.7 0-10.4 4.6-10.4 10.3h.1l-.3 105.6v.6c0 1.3.1 2.5.2 3.7 0 1 .1 2 .2 3.1.1 1.5.2 3 .4 4.5s.4 3 .7 4.5c.2 1.2.4 2.5.7 3.7.3 1.4.6 2.8 1 4.2 0-.1 0-.1.1-.2.9 3.3 1.9 6.5 3.2 9.6v.1c.1.2.2.5.3.7.6 1.5 1.4 3 2.1 4.5.5 1 .9 2.1 1.4 3.1 0 0 0 0 0-.1 1.1 2.2 2.4 4.3 3.7 6.4 0 0 0 .1-.1.1.4.7 1 1.3 1.4 2 0 .1.1.1.1.2.9 1.4 1.8 2.8 2.8 4.1 0-.1.1-.1.1-.2 1.4 1.8 2.8 3.6 4.3 5.3v.1c.3.3.6.6.9.9 16.4 18 39.9 29.4 66 29.5 49.4.1 89.7-40 89.8-89.4h.1v-1.7l.1-59.4c0-36.6 28.6-66.5 64.7-68.9v-7c-39.9 2.4-71.6 35.4-71.7 75.9v.1.2l-.1 60.2v.6h-.1c-.1 45.6-37.2 82.5-82.8 82.4-22.7-.1-43.3-9.3-58.2-24.2 1.1-1.9 2.2-3.9 3.2-5.9 13.8 14.6 33.3 23.7 55 23.8 42 .1 76.3-34 76.4-76h.1v-1.7l.2-59.1c-.1-44.1 34.5-80.2 78.1-82.6v-7c-47.4 2.3-85.1 41.3-85.2 89.2zm-145.6 60.7c0 7.8-1.2 15.3-3.3 22.4-2-7.1-3.1-14.6-3.1-22.4h.1v-.6-1-.1l.2-104.5c0-1.7 1.4-3.2 3.2-3.2s3.2 1.4 3.2 3.2l-.2 105.6zm4.2 40.5c-1.3-2.4-2.6-4.9-3.7-7.4 1.3-3.1 2.3-6.3 3.2-9.5 1 3.2 2.3 6.2 3.7 9.2-1 2.6-2 5.2-3.2 7.7zm8.6 12.5c-1.5-1.8-2.9-3.7-4.3-5.7 1.2-2.2 2.2-4.4 3.2-6.7 1.3 2.1 2.8 4.2 4.3 6.2-1 2.1-2.1 4.2-3.2 6.2z"/><path d="m496.1 351.7c0-11.8-11.7-22-32-22-24.2 0-41 16.6-45.4 29.6 7.2 1.2 21.9 3.4 30.1 1.3 2-.5 5.9-2.1 7.5-5.4 2.8-5.1 6.5-8.9 10.6-8.9 3.5 0 4.8 1.8 4.8 5.6 0 5.1-6.8 11.7-16.9 12.6-.7.2-1.4.2-1.4.2s-13 1.3-35.7-2.9h-.1c-2.2-.5-4.2-1-5.6-1.4.2-1.9.4-3.8.4-5.7 0-13.3-7.5-25.5-20.6-25.5-8.7 0-14.9 6.6-14.9 15.1 0 11.1 11.4 15.7 13.2 17 3.4 2.3 3.1 2.1 3.1 2.1s.1.7.1 1.1c-.1 14-9.4 26.2-23.6 26.2-3.6 0-6.8-3.2-6.8-8.3 0-1.8.3-3.9 1.1-6.4l6.9-18.9c1.1-3.4 1.7-6.6 1.7-9.6 0-10.3-8.2-17.7-22.8-17.7-14.1 0-24.7 7.6-31.1 22.9 3-3.9 8.5-10.1 12.9-10.9 10.7-1.8 5.6 13.5 5.4 13.9-.4 1.7-1 3.7-1.7 5.6l-4.1 11c-1.4 3.8-2 7.5-2 10.4 0 16.8 15.1 24.8 27.9 24.8 23.5 0 44.9-16 52.4-36.9 1.4.6 3.2 1.4 5.5 2.1-.1 1.2-.2 2.4-.2 3.5 0 16.6 13 31.1 36.6 31.1 19.8 0 30.5-8.5 35.8-19.2.4-.8.7-1.7.7-2.7 0-3.3-2.7-6.1-6.1-6.1-1.9 0-3.6 1-4.7 2.4-.1 0-.6.9-.6.9-2.7 6.5-7.1 10.3-15.3 10.3-10 0-16.3-4.2-12.9-16.5 29.6-.2 47.8-11.2 47.8-24.7z"/><path d="m320.6 387.4c.1-.5.2-1 .2-1.5 0-3.3-2.7-5.9-5.9-5.9-3 0-5.4 2.2-5.8 5-.1.2-.2.3-.3.5-2.5 6.7-3 7.3-6.7 7.3-2.7 0-1.3-5.4.6-10.3l18.3-51.1h-34.1l-4.4 12.1c-1.1-9.1-6.9-13.6-17.5-13.6-19.6 0-40.1 28.7-40.1 52.8 0 18 7.9 25.1 20.7 25.1 10.6 0 19.4-6.9 26.3-18.5.1 8.3 4.9 18.5 19.6 18.5 14.6 0 24-6.7 29.1-19.6.1-.4.1-.6 0-.8zm-49.8-11.6c-3 9.2-5.9 12.2-8.5 12.2-2.4 0-4.2-1.1-4.2-4.4 0-8.6 10.7-36.3 16.5-36.3 2.5 0 4.7 1.4 4.8 4.5z"/><path d="m145.9 373c-.1 1.2-.2 2.4-.2 3.5 0 16.6 13 31.1 36.6 31.1 19.8 0 30.5-8.5 35.8-19.2.4-.8.7-1.7.7-2.7 0-3.3-2.7-6.1-6.1-6.1-1.9 0-3.6 1-4.7 2.4-.1 0-.6.9-.6.9-2.7 6.5-7.1 10.3-15.3 10.3-10 0-16.3-4.2-13-16.5 29.3-.6 47.5-11.6 47.5-25.1 0-11.8-11.7-22-32-22-24.2 0-41 16.6-45.4 29.6 7.2 1.2 21.9 3.4 30.1 1.3 2-.5 5.9-2.1 7.4-5.4 2.8-5.1 6.5-8.9 10.6-8.9 3.5 0 4.8 1.8 4.8 5.6 0 5.1-6.8 11.7-16.9 12.6-.7.2-1.4.2-1.4.2s-13 1.3-35.7-2.9h-.1c-2.2-.5-4-1-5.4-1.3.3-2 .4-4 .4-6 0-13.1-6.3-25.1-16.6-25.1-7.6 0-14.2 8.4-14.2 14.6 0 10.6 12.8 11.3 12.8 22.3 0 12.5-13.1 21.7-23.4 21.7-6.2 0-8.9-2.5-8.9-8.6 0-2.8.8-5.9 2.3-9.9l13.7-38.2h-32.3l-16.2 44.4c-3.1 9.2-6.1 10.6-9 10.6-2 0-4-1.8-4-4.9 0-2 .4-3.2 1.3-5.4l4.8-10.7c3-6.6 4.2-12.3 4.2-17.3 0-11.4-7.3-18.2-17-18.2-13.7 0-26.5 7.4-34.2 22.2 3.1-3.9 9.7-9.5 13.8-10.2 10.8-1.8 5.4 13.9 5.4 13.9-.5 1.7-1.3 3.7-2.2 5.6l-4.9 11c-3 6.5-4.2 12.3-4.2 16.8 0 12.5 8 18.5 19 18.5 13 0 24.9-6.1 33.4-15.6 3.4 9.7 12.1 15.6 25.4 15.6 19.3 0 40.9-15.4 48.5-36.8 1.3.8 3.1 1.5 5.4 2.3z"/><path d="m19 355.3c.3-.6.7-1.6 1-2.7.9-2.9 1.6-6.6-1.1-6.6-3.7-.1-9.1 4.9-12 7.8-.1.1-.2.2-.3.3-1.4 1.7-1.7 3.7-1.7 4.9 0 2.9 3.4 6 6.8 4.8 3.1-1.1 5.5-4.8 7.3-8.5z"/><path d="m322.4 364.7c2.3 0 4.2-1.3 5.1-3.2l.5.3c1-2.9 1.9-5 2.7-6.5.9-2.1 3.7-9.2 0-9.3-3.8-.1-9.4 5.1-12.2 8-.2.5-.5 1-.7 1.6l.1.1c-.7.9-1.2 2-1.2 3.3 0 3.1 2.6 5.7 5.7 5.7z"/><path d="m12.5 469.6c-.2-.6.2-1 .7-1h3.8c.3 0 .7.3.7.6l4.3 16.4h.2l6.5-17c.1-.2.3-.5.7-.5h.7c.4 0 .6.2.7.5l6.6 17h.2l4.2-16.4c.1-.3.4-.6.7-.6h3.8c.6 0 .9.4.7 1l-7.8 27.7c-.1.3-.4.6-.7.6h-.7c-.4 0-.6-.2-.7-.5l-7.4-18.6h-.2l-7.3 18.6c-.1.2-.3.5-.7.5h-.5c-.3 0-.7-.2-.7-.6z"/><path d="m52.8 469.4c0-.4.3-.8.8-.8h16.8c.5 0 .8.4.8.8v3.4c0 .4-.3.8-.8.8h-12.3v6.7h10.2c.4 0 .8.4.8.8v3.4c0 .5-.4.8-.8.8h-10.2v7.2h12.2c.5 0 .8.4.8.8v3.4c0 .4-.3.8-.8.8h-16.7c-.5 0-.8-.4-.8-.8z"/><path d="m74.1 496.3 12.8-27.7c.1-.2.3-.5.7-.5h.4c.4 0 .6.2.7.5l12.7 27.7c.2.5-.1 1.1-.7 1.1h-3.6c-.6 0-.9-.2-1.2-.8l-2-4.4h-12.3l-2 4.4c-.2.4-.5.8-1.2.8h-3.6c-.6 0-1-.5-.7-1.1zm17.8-8.7-4.1-9.1h-.1l-4 9.1z"/><path d="m100.2 469.7c-.2-.5.1-1.1.7-1.1h4.2c.4 0 .6.2.7.5l7.9 17.7h.3l7.9-17.7c.1-.2.3-.5.7-.5h4.2c.6 0 .9.5.7 1.1l-12.8 27.7c-.1.2-.3.5-.7.5h-.4c-.4 0-.6-.2-.7-.5z"/><path d="m132.1 469.4c0-.4.3-.8.8-.8h16.8c.5 0 .8.4.8.8v3.4c0 .4-.3.8-.8.8h-12.2v6.7h10.2c.4 0 .8.4.8.8v3.4c0 .5-.4.8-.8.8h-10.2v7.2h12.2c.5 0 .8.4.8.8v3.4c0 .4-.3.8-.8.8h-16.8c-.5 0-.8-.4-.8-.8z"/><path d="m158.3 495.9c.6 0 1 .4 1 .9s-.4 1-1 1c-.5 0-1-.5-1-1s.5-.9 1-.9z"/><path d="m178.2 469.4c0-.4.3-.8.7-.8h9.2c7.9 0 14.4 6.5 14.4 14.4 0 8-6.5 14.4-14.4 14.4h-9.1c-.4 0-.7-.4-.7-.8v-27.2zm9.3 25.2c6.8 0 11.6-4.8 11.6-11.6 0-6.7-4.9-11.6-11.6-11.6h-6.2v23.2z"/><path d="m209.8 469.4c0-.4.4-.8.8-.8h1.6c.4 0 .8.4.8.8v27.2c0 .4-.4.8-.8.8h-1.6c-.4 0-.8-.4-.8-.8z"/><path d="m235 468.2c4.2 0 7.2 1.4 10 3.8.3.3.4.8 0 1.2s-.8.8-1.2 1.2-.6.4-1.1 0c-2.1-1.9-5.1-3.2-7.8-3.2-6.5 0-11.4 5.4-11.4 11.8 0 6.3 4.9 11.9 11.4 11.9 4.5 0 7.4-1.7 7.4-1.7v-5.8h-4.7c-.5 0-.8-.3-.8-.7v-1.7c0-.5.3-.8.8-.8h7.1c.4 0 .7.4.7.8v9.4c0 .2-.2.5-.3.7 0 0-4.2 2.7-10.2 2.7-8.2 0-14.9-6.5-14.9-14.8.1-8.2 6.8-14.8 15-14.8z"/><path d="m253.2 469.4c0-.4.4-.8.8-.8h1.6c.4 0 .8.4.8.8v27.2c0 .4-.4.8-.8.8h-1.6c-.4 0-.8-.4-.8-.8z"/><path d="m269.7 471.3h-7.2c-.5 0-.8-.4-.8-.8v-1.2c0-.4.3-.8.8-.8h17.5c.5 0 .8.4.8.8v1.2c0 .4-.3.8-.8.8h-7.2v25.3c0 .4-.4.8-.8.8h-1.6c-.4 0-.8-.4-.8-.8v-25.3z"/><path d="m280.6 496.3 12.5-27.7c.1-.2.3-.5.7-.5h.4c.4 0 .6.2.7.5l12.4 27.7c.2.5-.1 1.1-.7 1.1h-1.6c-.4 0-.6-.2-.7-.5l-3-6.8h-14.6l-3 6.8c-.1.2-.3.5-.7.5h-1.6c-.7 0-1-.5-.8-1.1zm19.6-8.7c-2-4.5-4-9-6-13.5h-.3l-6 13.5z"/><path d="m312.7 469.4c0-.4.3-.8.8-.8h1.6c.4 0 .8.4.8.8v25.3h11.9c.5 0 .8.4.8.8v1.2c0 .4-.3.8-.8.8h-14.2c-.5 0-.8-.4-.8-.8v-27.3z"/><path d="m341.9 493.1c.2-.2.4-.5.6-.8.4-.5.9-.9 1.4-.4.3.2 3.3 3.1 7 3.1 3.3 0 5.5-2.1 5.5-4.5 0-2.8-2.5-4.5-7.2-6.5-4.5-2-7.2-3.8-7.2-8.5 0-2.8 2.2-7.3 8.8-7.3 4 0 7 2.1 7 2.1.2.1.7.6.2 1.4-.2.2-.3.5-.5.8-.4.6-.8.7-1.4.4-.3-.2-2.9-1.9-5.4-1.9-4.4 0-5.7 2.8-5.7 4.5 0 2.8 2.1 4.4 5.6 5.8 5.6 2.3 9.1 4.4 9.1 9.1 0 4.3-4.1 7.4-8.9 7.4-4.9 0-8.2-2.8-8.7-3.3-.3-.3-.7-.6-.2-1.4z"/><path d="m370.6 471.3h-7.2c-.5 0-.8-.4-.8-.8v-1.2c0-.4.3-.8.8-.8h17.4c.5 0 .8.4.8.8v1.2c0 .4-.3.8-.8.8h-7.2v25.3c0 .4-.4.8-.8.8h-1.6c-.4 0-.8-.4-.8-.8v-25.3z"/><path d="m386.6 469.4c0-.4.4-.8.8-.8h1.6c.5 0 .8.4.8.8v17.2c0 4.7 2.9 8.4 7.7 8.4 4.9 0 7.8-3.6 7.8-8.3v-17.2c0-.4.3-.8.8-.8h1.6c.4 0 .8.4.8.8v17.4c0 6.3-4.4 11-10.9 11s-10.9-4.8-10.9-11v-17.5z"/><path d="m417.3 469.4c0-.4.3-.8.7-.8h9.2c7.9 0 14.4 6.5 14.4 14.4 0 8-6.5 14.4-14.4 14.4h-9.2c-.4 0-.7-.4-.7-.8zm9.3 25.2c6.7 0 11.6-4.8 11.6-11.6 0-6.7-4.9-11.6-11.6-11.6h-6.2v23.2z"/><path d="m448.9 469.4c0-.4.4-.8.8-.8h1.6c.4 0 .8.4.8.8v27.2c0 .4-.4.8-.8.8h-1.6c-.4 0-.8-.4-.8-.8z"/><path d="m474 468.2c8.2 0 14.8 6.6 14.8 14.9 0 8.2-6.6 14.8-14.8 14.8s-14.8-6.5-14.8-14.8 6.6-14.9 14.8-14.9zm0 26.7c6.5 0 11.9-5.3 11.9-11.9s-5.4-12-11.9-12-11.9 5.4-11.9 12 5.4 11.9 11.9 11.9z"/></g></svg>